<svg width="799" height="624" viewBox="0 0 799 624" fill="none" xmlns="http://www.w3.org/2000/svg">
<path d="M306.055 516.314C414.088 624.347 589.244 624.347 697.277 516.314C805.31 408.281 805.31 233.125 697.277 125.092C589.244 17.0594 414.088 17.0594 306.055 125.092C198.023 233.125 198.023 408.281 306.055 516.314Z" fill="#506BF0"/>
<path d="M293.815 528.553C408.608 643.346 594.724 643.346 709.517 528.553C824.31 413.76 824.31 227.644 709.517 112.851C594.724 -1.94193 408.608 -1.94194 293.815 112.851C179.022 227.644 179.022 413.76 293.815 528.553Z" stroke="#4056C0" stroke-width="0.866381" stroke-miterlimit="10"/>
<path d="M319.917 568.893V520.827" stroke="#CBD3F6" stroke-width="0.79707" stroke-miterlimit="10"/>
<path d="M54.112 144.176H590.904C596.592 144.176 602.048 146.433 606.073 150.452C610.098 154.47 612.364 159.922 612.373 165.61V505.942H32.6431V165.61C32.6522 159.922 34.9182 154.47 38.9434 150.452C42.9686 146.433 48.4241 144.176 54.112 144.176Z" fill="#CBD3F6"/>
<path d="M612.373 490.434H32.6431V505.942H612.373V490.434Z" fill="#DCECF4"/>
<path d="M57.006 152.58H587.993C592.129 152.58 596.096 154.223 599.021 157.148C601.945 160.072 603.588 164.039 603.588 168.175V497.521H41.4111V168.175C41.4111 164.039 43.0542 160.072 45.9788 157.148C48.9034 154.223 52.87 152.58 57.006 152.58Z" fill="#293779"/>
<path d="M57.006 152.58H90.7255V497.521H41.4111V168.175C41.4111 164.039 43.0542 160.072 45.9788 157.148C48.9034 154.223 52.87 152.58 57.006 152.58Z" fill="#293779"/>
<path d="M57.006 152.58H587.993C592.129 152.58 596.096 154.223 599.021 157.148C601.945 160.072 603.588 164.039 603.588 168.175V183.267H41.4111V168.175C41.4111 164.039 43.0542 160.072 45.9788 157.148C48.9034 154.223 52.87 152.58 57.006 152.58Z" fill="#3C52BA"/>
<path d="M605.477 527.255H39.5398C32.5822 527.24 25.8545 524.763 20.5485 520.263C15.2425 515.763 11.7007 509.529 10.5507 502.667L10.2734 501.056H634.726L634.466 502.667C633.316 509.529 629.774 515.763 624.468 520.263C619.162 524.763 612.435 527.24 605.477 527.255Z" fill="#DEE3FF"/>
<path d="M628.28 501.056C626.288 506.825 622.547 511.829 617.578 515.372C612.609 518.916 606.659 520.822 600.556 520.827H34.6013C26.8801 520.829 19.4699 517.784 13.9814 512.354C16.5488 516.871 20.2654 520.629 24.7541 523.246C29.2427 525.863 34.3438 527.246 39.5397 527.255H605.477C612.438 527.245 619.169 524.769 624.479 520.269C629.789 515.768 633.333 509.532 634.483 502.667L634.743 501.056H628.28Z" fill="#0E27A1"/>
<path d="M71.786 167.932C71.7894 168.743 71.5521 169.536 71.1041 170.211C70.6561 170.886 70.0176 171.413 69.2696 171.724C68.5217 172.036 67.6981 172.118 66.9032 171.961C66.1083 171.804 65.3781 171.414 64.8052 170.841C64.2322 170.268 63.8424 169.538 63.6852 168.743C63.5279 167.948 63.6104 167.125 63.922 166.377C64.2337 165.629 64.7605 164.99 65.4356 164.542C66.1108 164.094 66.9038 163.857 67.714 163.86C68.794 163.86 69.8297 164.289 70.5934 165.053C71.357 165.817 71.786 166.852 71.786 167.932Z" fill="#42CBEA"/>
<path d="M86.6532 167.932C86.6566 168.742 86.4197 169.534 85.9725 170.209C85.5252 170.884 84.8878 171.411 84.1408 171.723C83.3939 172.035 82.5712 172.118 81.7768 171.963C80.9824 171.807 80.2521 171.419 79.6785 170.847C79.1049 170.276 78.7137 169.548 78.5545 168.754C78.3953 167.96 78.4752 167.137 78.7842 166.389C79.0932 165.641 79.6173 165.001 80.2902 164.551C80.9631 164.101 81.7544 163.86 82.5639 163.86C83.6455 163.86 84.683 164.289 85.4494 165.052C86.2158 165.815 86.6486 166.851 86.6532 167.932Z" fill="#42CBEA"/>
<path d="M101.59 167.932C101.59 168.738 101.351 169.525 100.904 170.195C100.456 170.864 99.8201 171.386 99.0761 171.694C98.332 172.003 97.5133 172.083 96.7234 171.926C95.9335 171.769 95.2079 171.381 94.6385 170.812C94.069 170.242 93.6812 169.517 93.524 168.727C93.3669 167.937 93.4476 167.118 93.7558 166.374C94.064 165.63 94.5859 164.994 95.2555 164.547C95.9251 164.099 96.7124 163.86 97.5178 163.86C98.5977 163.86 99.6335 164.289 100.397 165.053C101.161 165.817 101.59 166.852 101.59 167.932Z" fill="#42CBEA"/>
<path d="M508.178 426.132L502.026 426.461L502.338 420.292C499.931 418.667 497.22 417.547 494.368 417L490.244 421.575L486.12 417C483.267 417.544 480.555 418.664 478.149 420.292L478.461 426.461L472.292 426.132C470.677 428.544 469.558 431.254 469 434.102L473.575 438.226L469 442.368C469.555 445.212 470.675 447.916 472.292 450.321L478.461 450.009L478.149 456.178C480.558 457.799 483.269 458.918 486.12 459.47L490.244 454.895L494.368 459.47C497.218 458.915 499.928 457.796 502.338 456.178L502.026 450.009L508.178 450.321C509.809 447.924 510.93 445.217 511.47 442.368L506.896 438.226L511.47 434.102C510.927 431.249 509.807 428.536 508.178 426.132Z" stroke="#CBD3F6" stroke-width="0.866381" stroke-miterlimit="10"/>
<path d="M499.705 438.226C499.705 440.097 499.15 441.926 498.11 443.482C497.071 445.038 495.593 446.251 493.865 446.967C492.136 447.683 490.234 447.87 488.398 447.505C486.563 447.14 484.877 446.239 483.554 444.916C482.231 443.593 481.33 441.907 480.965 440.072C480.6 438.237 480.787 436.334 481.503 434.605C482.219 432.877 483.432 431.399 484.988 430.36C486.544 429.32 488.373 428.765 490.244 428.765C492.753 428.765 495.16 429.762 496.934 431.536C498.708 433.31 499.705 435.717 499.705 438.226V438.226Z" stroke="#CBD3F6" stroke-width="0.866381" stroke-miterlimit="10"/>
<path d="M51.8675 284.485C67.5344 277.995 74.9741 260.034 68.4847 244.367C61.9953 228.7 44.0341 221.261 28.3673 227.75C12.7005 234.24 5.26071 252.201 11.7501 267.868C18.2395 283.534 36.2007 290.974 51.8675 284.485Z" fill="#42CBEA"/>
<path d="M66.5728 233.268C71.7263 239.226 74.7181 246.749 75.064 254.619C75.4099 262.489 73.0896 270.245 68.4787 276.632C63.8678 283.02 57.2362 287.664 49.6575 289.813C42.0788 291.962 33.9966 291.49 26.7192 288.474" stroke="#42CBEA" stroke-width="1.10897" stroke-miterlimit="10" stroke-linecap="round"/>
<path d="M16.4438 281.889C11.2514 277.126 7.61937 270.904 6.02385 264.04C4.42834 257.177 4.94378 249.991 7.50259 243.426C10.0614 236.86 14.5442 231.221 20.3634 227.247C26.1826 223.273 33.0667 221.15 40.1134 221.156" stroke="#42CBEA" stroke-width="1.10897" stroke-miterlimit="10" stroke-linecap="round"/>
<path d="M44.133 241.828H46.6628L37.0806 269.171H34.5508L44.133 241.828Z" fill="white"/>
<path d="M60.5428 254.858V257.353L47.5298 262.552V260.143L57.9264 256.158L47.5298 252.19V249.764L60.5428 254.858Z" fill="white"/>
<path d="M19.6846 257.353V254.858L32.6803 249.659V252.085L22.2837 256.053L32.6803 260.039V262.447L19.6846 257.353Z" fill="white"/>
<path d="M158.005 93.9596C177.48 74.4846 177.48 42.9094 158.005 23.4344C138.53 3.95938 106.955 3.95938 87.4799 23.4344C68.0049 42.9094 68.0049 74.4846 87.4799 93.9596C106.955 113.435 138.53 113.435 158.005 93.9596Z" fill="#42CBEA"/>
<path d="M165.737 21.531C174.091 31.2006 178.942 43.4041 179.505 56.1703C180.069 68.9365 176.312 81.52 168.843 91.8881C161.373 102.256 150.626 109.804 138.339 113.311C126.051 116.819 112.939 116.082 101.122 111.219" stroke="#42CBEA" stroke-width="1.80207" stroke-miterlimit="10" stroke-linecap="round"/>
<path d="M84.3146 100.528C75.8902 92.7889 69.999 82.6864 67.4122 71.5431C64.8254 60.3999 65.6636 48.7352 69.817 38.0763C73.9705 27.4174 81.2456 18.261 90.69 11.8059C100.134 5.35082 111.308 1.89788 122.747 1.89917" stroke="#42CBEA" stroke-width="1.80207" stroke-miterlimit="10" stroke-linecap="round"/>
<path d="M101.763 68.0378L104.778 64.4163C105.381 65.3834 106.214 66.1867 107.203 66.7549C108.191 67.3231 109.304 67.6388 110.444 67.6739C113.39 67.6739 114.897 65.9411 114.897 62.4756V47.7125H104.708V43.2766H120.182V62.1984C120.182 68.9215 116.838 72.2311 110.548 72.2311C108.857 72.2717 107.18 71.9132 105.654 71.1846C104.128 70.4561 102.794 69.378 101.763 68.0378Z" fill="white"/>
<path d="M124.652 69.5981L126.61 65.7168C128.895 67.119 131.52 67.8682 134.2 67.8827C137.423 67.8827 138.757 66.9817 138.757 65.4742C138.757 61.3156 125.311 65.2316 125.311 56.5331C125.311 52.4265 129.019 49.7234 134.893 49.7234C137.727 49.676 140.529 50.3245 143.054 51.6121L141.096 55.4761C139.206 54.3706 137.048 53.8071 134.858 53.8474C131.774 53.8474 130.301 54.8697 130.301 56.2905C130.301 60.7091 143.765 56.793 143.765 65.3182C143.765 69.3902 140.005 72.0413 133.888 72.0413C130.641 72.1085 127.441 71.2619 124.652 69.5981Z" fill="white"/>
<path d="M275.262 190.513C306.382 190.513 331.611 165.285 331.611 134.164C331.611 103.043 306.382 77.8145 275.262 77.8145C244.141 77.8145 218.912 103.043 218.912 134.164C218.912 165.285 244.141 190.513 275.262 190.513Z" fill="#42CBEA"/>
<path d="M323.831 92.2139C333.345 103.12 338.89 116.924 339.562 131.382C340.235 145.839 335.996 160.098 327.535 171.841C319.075 183.583 306.89 192.117 292.963 196.055C279.036 199.992 264.186 199.102 250.83 193.528" stroke="#42CBEA" stroke-width="2.02733" stroke-miterlimit="10" stroke-linecap="round"/>
<path d="M231.838 181.417C222.294 172.685 215.613 161.271 212.675 148.673C209.737 136.076 210.679 122.884 215.376 110.831C220.074 98.7783 228.307 88.4284 238.995 81.1411C249.683 73.8539 262.325 69.9701 275.261 70.0002" stroke="#42CBEA" stroke-width="2.02733" stroke-miterlimit="10" stroke-linecap="round"/>
<path d="M261.953 131.322C261.953 135.672 258.748 138.34 253.567 138.34H249.114V144.041H245.492V124.305H253.619C258.8 124.305 261.953 126.956 261.953 131.322ZM258.263 131.322C258.263 128.845 256.53 127.406 253.394 127.406H249.114V135.238H253.394C256.755 135.238 258.315 133.8 258.315 131.322H258.263Z" fill="white"/>
<path d="M283.215 124.305V144.041H279.559V135.585H269.353V144.041H265.679V124.305H269.353V132.449H279.559V124.305H283.215Z" fill="white"/>
<path d="M305.03 131.322C305.03 135.672 301.825 138.34 296.644 138.34H292.191V144.041H288.517V124.305H296.609C301.807 124.305 305.03 126.956 305.03 131.322ZM301.34 131.322C301.34 128.845 299.607 127.406 296.47 127.406H292.191V135.238H296.47C299.676 135.238 301.34 133.8 301.34 131.322Z" fill="white"/>
<path d="M615.039 479.015C647.06 479.015 673.017 453.057 673.017 421.036C673.017 389.016 647.06 363.058 615.039 363.058C583.019 363.058 557.061 389.016 557.061 421.036C557.061 453.057 583.019 479.015 615.039 479.015Z" fill="#42CBEA"/>
<path d="M664.995 377.873C674.689 389.115 680.313 403.295 680.961 418.126C681.609 432.956 677.242 447.572 668.565 459.617C659.888 471.661 647.407 480.432 633.134 484.514C618.862 488.595 603.631 487.751 589.897 482.116" stroke="#42CBEA" stroke-width="2.09664" stroke-miterlimit="10" stroke-linecap="round"/>
<path d="M570.352 469.657C560.56 460.658 553.714 448.913 550.708 435.959C547.703 423.005 548.679 409.445 553.508 397.055C558.337 384.665 566.795 374.021 577.774 366.517C588.753 359.013 601.741 354.999 615.039 355" stroke="#42CBEA" stroke-width="2.09664" stroke-miterlimit="10" stroke-linecap="round"/>
<path d="M594.229 413.134V431.138H590.885V423.427H581.562V431.138H578.218V413.134H581.562V420.568H590.885V413.134H594.229Z" fill="white"/>
<path d="M602.702 415.959H596.742V413.134H612.025V415.959H606.047V431.138H602.702V415.959Z" fill="white"/>
<path d="M631.085 431.138V419.199L625.176 429.076H623.669L617.812 419.355V431.138H614.537V413.135H617.292L624.431 425.056L631.466 413.117H634.221V431.121L631.085 431.138Z" fill="white"/>
<path d="M639.089 413.134H642.434V428.313H651.842V431.138H639.089V413.134Z" fill="white"/>
<path d="M395.482 101.682C416.574 101.682 433.672 84.5836 433.672 63.4918C433.672 42.4 416.574 25.3018 395.482 25.3018C374.39 25.3018 357.292 42.4 357.292 63.4918C357.292 84.5836 374.39 101.682 395.482 101.682Z" fill="#42CBEA"/>
<path d="M428.387 35.0571C434.775 42.4624 438.482 51.8039 438.91 61.5744C439.338 71.3448 436.461 80.9745 430.745 88.9096C425.028 96.8447 416.805 102.623 407.402 105.311C397.999 107.999 387.964 107.441 378.917 103.726" stroke="#42CBEA" stroke-width="1.38621" stroke-miterlimit="10" stroke-linecap="round"/>
<path d="M366.061 95.5137C359.611 89.5857 355.102 81.8481 353.124 73.3141C351.145 64.7802 351.79 55.8478 354.974 47.6865C358.157 39.5253 363.731 32.5156 370.966 27.5754C378.2 22.6353 386.758 19.9949 395.518 20" stroke="#42CBEA" stroke-width="1.38621" stroke-miterlimit="10" stroke-linecap="round"/>
<path d="M372.523 63.3191C372.608 61.5372 373.215 59.8194 374.267 58.3787C375.319 56.9379 376.77 55.8376 378.442 55.2141C380.113 54.5905 381.931 54.4712 383.669 54.8708C385.408 55.2705 386.991 56.1715 388.222 57.4623L386.195 59.3684C385.631 58.733 384.937 58.2274 384.159 57.8864C383.381 57.5454 382.539 57.377 381.69 57.393C380.886 57.3495 380.081 57.4703 379.326 57.748C378.57 58.0257 377.878 58.4545 377.294 59.0083C376.709 59.562 376.244 60.2291 375.926 60.9688C375.607 61.7085 375.443 62.5052 375.443 63.3104C375.443 64.1156 375.607 64.9123 375.926 65.652C376.244 66.3917 376.709 67.0588 377.294 67.6125C377.878 68.1663 378.57 68.5951 379.326 68.8728C380.081 69.1505 380.886 69.2713 381.69 69.2278C382.541 69.2439 383.385 69.074 384.163 68.7298C384.941 68.3856 385.635 67.8754 386.195 67.2351L388.222 69.1585C386.992 70.4485 385.41 71.3494 383.673 71.7497C381.936 72.15 380.12 72.0321 378.449 71.4106C376.778 70.7892 375.326 69.6914 374.273 68.2532C373.22 66.815 372.612 65.0995 372.523 63.3191Z" fill="#F3F5F8"/>
<path d="M389.851 69.9551L390.925 67.5292C392.535 68.7228 394.484 69.3722 396.488 69.3833C399.121 69.3833 400.23 68.4476 400.23 67.1827C400.23 63.5439 390.198 65.9351 390.198 59.6798C390.198 56.9594 392.381 54.6375 396.99 54.6375C398.963 54.6075 400.906 55.1232 402.604 56.1276L401.617 58.5708C400.214 57.7219 398.612 57.2614 396.973 57.2366C394.374 57.2366 393.317 58.2589 393.317 59.5239C393.317 63.1107 403.315 60.7888 403.315 66.9747C403.315 69.6778 401.114 71.9824 396.488 71.9824C394.112 72.0567 391.779 71.344 389.851 69.9551Z" fill="#F3F5F8"/>
<path d="M404.925 69.9549L406.017 67.529C407.626 68.7248 409.575 69.3744 411.579 69.3831C414.196 69.3831 415.305 68.4474 415.305 67.1825C415.305 63.5437 405.289 65.9349 405.289 59.6796C405.289 56.9592 407.455 54.6373 412.082 54.6373C414.054 54.61 415.996 55.1255 417.696 56.1274L416.708 58.5706C415.306 57.7217 413.703 57.2612 412.064 57.2364C409.465 57.2364 408.391 58.2587 408.391 59.5236C408.391 63.1105 418.389 60.7886 418.389 66.9745C418.389 69.6776 416.206 71.9822 411.579 71.9822C409.199 72.0539 406.861 71.3416 404.925 69.9549Z" fill="#F3F5F8"/>
</svg>
