<svg width="118" height="61" viewBox="0 0 118 61" fill="none" xmlns="http://www.w3.org/2000/svg">
<path d="M6.99372 60L0 59.8058L0.00627958 20L7 20.1942L6.99372 60Z" fill="#4068B2"/>
<path d="M27.387 7.08609C26.8412 9.58028 24.4545 11.4519 21.5245 11.9646C21.5245 11.9646 21.5099 11.9665 21.4784 11.9704C21.3741 11.982 21.1024 12.0167 20.6949 12.0725C17.3162 12.5313 4.57489 14.5398 0.5 19C0.54366 18.8015 3.85206 3.82475 17.0882 0.424635C17.0906 0.418852 17.0979 0.420781 17.1027 0.416926C17.6194 0.283928 18.1506 0.170205 18.6963 0.0757568C19.4992 -0.0283285 20.3384 -0.0264025 21.1825 0.0892478C25.3277 0.663644 28.1049 3.79391 27.387 7.08609Z" fill="#4068B2"/>
<path d="M33.7756 20.9091V50H29.0881L15.3807 30.1847H15.1392V50H9.86932V20.9091H14.5852L28.2784 40.7386H28.5341V20.9091H33.7756Z" fill="#4068B2"/>
<rect x="37" y="21" width="19" height="6" fill="#4068B2"/>
<rect x="37" y="32" width="19" height="6" fill="#4068B2"/>
<path d="M37 44H56V50H37V44Z" fill="#4068B2"/>
<path d="M72 35.5L60 50V35.5V21L72 35.5Z" fill="#4068B2"/>
<path d="M94.5909 25.3267V20.9091H117.801V25.3267H108.81V50H103.582V25.3267H94.5909Z" fill="#4068B2"/>
<path d="M73.2727 20.9091L79.679 31.5625H79.9062L86.3409 20.9091H92.3494L83.3864 35.4545L92.4915 50H86.3835L79.9062 39.4176H79.679L73.2017 50H67.1222L76.3125 35.4545L67.2358 20.9091H73.2727Z" fill="#4068B2"/>
<path d="M14.4929 53.7827C14.4588 53.4389 14.3125 53.1719 14.054 52.9815C13.7955 52.7912 13.4446 52.696 13.0014 52.696C12.7003 52.696 12.446 52.7386 12.2386 52.8239C12.0313 52.9062 11.8722 53.0213 11.7614 53.169C11.6534 53.3168 11.5994 53.4844 11.5994 53.6719C11.5938 53.8281 11.6264 53.9645 11.6974 54.081C11.7713 54.1974 11.8722 54.2983 12 54.3835C12.1278 54.4659 12.2756 54.5384 12.4432 54.6009C12.6108 54.6605 12.7898 54.7116 12.9801 54.7543L13.7642 54.9418C14.1449 55.027 14.4943 55.1406 14.8125 55.2827C15.1307 55.4247 15.4063 55.5994 15.6392 55.8068C15.8722 56.0142 16.0526 56.2585 16.1804 56.5398C16.3111 56.821 16.3778 57.1435 16.3807 57.5071C16.3778 58.0412 16.2415 58.5043 15.9716 58.8963C15.7045 59.2855 15.3182 59.5881 14.8125 59.804C14.3097 60.017 13.7031 60.1236 12.9929 60.1236C12.2884 60.1236 11.6747 60.0156 11.152 59.7997C10.6321 59.5838 10.2259 59.2642 9.93324 58.8409C9.64347 58.4148 9.49148 57.8878 9.47727 57.2599H11.2628C11.2827 57.5526 11.3665 57.7969 11.5142 57.9929C11.6648 58.1861 11.8651 58.3324 12.1151 58.4318C12.3679 58.5284 12.6534 58.5767 12.9716 58.5767C13.2841 58.5767 13.5554 58.5312 13.7855 58.4403C14.0185 58.3494 14.1989 58.223 14.3267 58.0611C14.4545 57.8991 14.5185 57.7131 14.5185 57.5028C14.5185 57.3068 14.4602 57.142 14.3438 57.0085C14.2301 56.875 14.0625 56.7614 13.8409 56.6676C13.6222 56.5739 13.3537 56.4886 13.0355 56.4119L12.0852 56.1733C11.3494 55.9943 10.7685 55.7145 10.3423 55.3338C9.91619 54.9531 9.70455 54.4403 9.70739 53.7955C9.70455 53.267 9.84517 52.8054 10.1293 52.4105C10.4162 52.0156 10.8097 51.7074 11.3097 51.4858C11.8097 51.2642 12.3778 51.1534 13.0142 51.1534C13.6619 51.1534 14.2273 51.2642 14.7102 51.4858C15.196 51.7074 15.5739 52.0156 15.8438 52.4105C16.1136 52.8054 16.2528 53.2628 16.2614 53.7827H14.4929ZM28.7617 55.6364C28.7617 56.5881 28.5813 57.3977 28.2205 58.0653C27.8625 58.733 27.3739 59.2429 26.7546 59.5952C26.1381 59.9446 25.4449 60.1193 24.675 60.1193C23.8995 60.1193 23.2035 59.9432 22.587 59.5909C21.9705 59.2386 21.4833 58.7287 21.1253 58.0611C20.7674 57.3935 20.5884 56.5852 20.5884 55.6364C20.5884 54.6847 20.7674 53.875 21.1253 53.2074C21.4833 52.5398 21.9705 52.0312 22.587 51.6818C23.2035 51.3295 23.8995 51.1534 24.675 51.1534C25.4449 51.1534 26.1381 51.3295 26.7546 51.6818C27.3739 52.0312 27.8625 52.5398 28.2205 53.2074C28.5813 53.875 28.7617 54.6847 28.7617 55.6364ZM26.891 55.6364C26.891 55.0199 26.7986 54.5 26.614 54.0767C26.4321 53.6534 26.175 53.3324 25.8427 53.1136C25.5103 52.8949 25.1211 52.7855 24.675 52.7855C24.229 52.7855 23.8398 52.8949 23.5074 53.1136C23.175 53.3324 22.9165 53.6534 22.7319 54.0767C22.55 54.5 22.4591 55.0199 22.4591 55.6364C22.4591 56.2528 22.55 56.7727 22.7319 57.196C22.9165 57.6193 23.175 57.9403 23.5074 58.1591C23.8398 58.3778 24.229 58.4872 24.675 58.4872C25.1211 58.4872 25.5103 58.3778 25.8427 58.1591C26.175 57.9403 26.4321 57.6193 26.614 57.196C26.7986 56.7727 26.891 56.2528 26.891 55.6364ZM33.2485 60V51.2727H39.0269V52.794H35.0937V54.8736H38.6434V56.3949H35.0937V60H33.2485ZM43.0557 52.794V51.2727H50.2233V52.794H47.5514V60H45.7275V52.794H43.0557ZM56.4882 60L53.991 51.2727H56.0066L57.4512 57.3366H57.5237L59.1174 51.2727H60.8433L62.4328 57.3494H62.5095L63.9541 51.2727H65.9697L63.4725 60H61.6742L60.0123 54.294H59.9441L58.2865 60H56.4882ZM70.7026 60H68.7254L71.7381 51.2727H74.116L77.1245 60H75.1472L72.9611 53.267H72.893L70.7026 60ZM70.579 56.5696H75.2495V58.0099H70.579V56.5696ZM81.2949 60V51.2727H84.7381C85.3972 51.2727 85.9597 51.3906 86.4256 51.6264C86.8944 51.8594 87.2509 52.1903 87.4952 52.6193C87.7424 53.0455 87.866 53.5469 87.866 54.1236C87.866 54.7031 87.741 55.2017 87.491 55.6193C87.241 56.0341 86.8787 56.3523 86.4043 56.5739C85.9327 56.7955 85.3617 56.9062 84.6912 56.9062H82.3858V55.4233H84.3929C84.7452 55.4233 85.0378 55.375 85.2708 55.2784C85.5037 55.1818 85.677 55.0369 85.7907 54.8438C85.9071 54.6506 85.9654 54.4105 85.9654 54.1236C85.9654 53.8338 85.9071 53.5895 85.7907 53.3906C85.677 53.1918 85.5023 53.0412 85.2665 52.9389C85.0336 52.8338 84.7395 52.7812 84.3844 52.7812H83.1401V60H81.2949ZM86.008 56.0284L88.177 60H86.1401L84.0179 56.0284H86.008ZM92.2899 60V51.2727H98.1706V52.794H94.1351V54.8736H97.8681V56.3949H94.1351V58.4787H98.1877V60H92.2899ZM107.492 53.7827C107.458 53.4389 107.312 53.1719 107.053 52.9815C106.795 52.7912 106.444 52.696 106 52.696C105.699 52.696 105.445 52.7386 105.238 52.8239C105.03 52.9062 104.871 53.0213 104.76 53.169C104.652 53.3168 104.598 53.4844 104.598 53.6719C104.593 53.8281 104.625 53.9645 104.697 54.081C104.77 54.1974 104.871 54.2983 104.999 54.3835C105.127 54.4659 105.275 54.5384 105.442 54.6009C105.61 54.6605 105.789 54.7116 105.979 54.7543L106.763 54.9418C107.144 55.027 107.493 55.1406 107.812 55.2827C108.13 55.4247 108.405 55.5994 108.638 55.8068C108.871 56.0142 109.052 56.2585 109.179 56.5398C109.31 56.821 109.377 57.1435 109.38 57.5071C109.377 58.0412 109.241 58.5043 108.971 58.8963C108.704 59.2855 108.317 59.5881 107.812 59.804C107.309 60.017 106.702 60.1236 105.992 60.1236C105.287 60.1236 104.674 60.0156 104.151 59.7997C103.631 59.5838 103.225 59.2642 102.932 58.8409C102.643 58.4148 102.491 57.8878 102.476 57.2599H104.262C104.282 57.5526 104.366 57.7969 104.513 57.9929C104.664 58.1861 104.864 58.3324 105.114 58.4318C105.367 58.5284 105.652 58.5767 105.971 58.5767C106.283 58.5767 106.554 58.5312 106.785 58.4403C107.018 58.3494 107.198 58.223 107.326 58.0611C107.454 57.8991 107.518 57.7131 107.518 57.5028C107.518 57.3068 107.459 57.142 107.343 57.0085C107.229 56.875 107.062 56.7614 106.84 56.6676C106.621 56.5739 106.353 56.4886 106.035 56.4119L105.084 56.1733C104.348 55.9943 103.768 55.7145 103.341 55.3338C102.915 54.9531 102.704 54.4403 102.706 53.7955C102.704 53.267 102.844 52.8054 103.128 52.4105C103.415 52.0156 103.809 51.7074 104.309 51.4858C104.809 51.2642 105.377 51.1534 106.013 51.1534C106.661 51.1534 107.226 51.2642 107.709 51.4858C108.195 51.7074 108.573 52.0156 108.843 52.4105C109.113 52.8054 109.252 53.2628 109.26 53.7827H107.492Z" fill="black"/>
</svg>
