<?xml version="1.0" encoding="UTF-8" standalone="no"?>
<!-- Created with Inkscape (http://www.inkscape.org/) -->

<svg
   version="1.1"
   id="svg2"
   xml:space="preserve"
   width="334.60001"
   height="84.480003"
   viewBox="0 0 334.60001 84.480003"
   sodipodi:docname="280  60.eps"
   xmlns:inkscape="http://www.inkscape.org/namespaces/inkscape"
   xmlns:sodipodi="http://sodipodi.sourceforge.net/DTD/sodipodi-0.dtd"
   xmlns="http://www.w3.org/2000/svg"
   xmlns:svg="http://www.w3.org/2000/svg"><defs
     id="defs6" /><sodipodi:namedview
     id="namedview4"
     pagecolor="#ffffff"
     bordercolor="#666666"
     borderopacity="1.0"
     inkscape:pageshadow="2"
     inkscape:pageopacity="0.0"
     inkscape:pagecheckerboard="0" /><g
     id="g8"
     inkscape:groupmode="layer"
     inkscape:label="ink_ext_XXXXXX"
     transform="matrix(1.3333333,0,0,-1.3333333,0,84.48)"><g
       id="g10"
       transform="scale(0.1)"><path
         d="M 151.781,40.5078 0,42.1484 0.140625,378.184 151.922,376.543 151.781,40.5078"
         style="fill:#4561b6;fill-opacity:1;fill-rule:nonzero;stroke:none"
         id="path12" /><path
         d="m 343.441,538.941 c -6.644,-33.097 -36.679,-57.793 -73.757,-64.406 0,0 -0.176,-0.015 -0.586,-0.078 -1.321,-0.148 -4.766,-0.578 -9.93,-1.312 C 216.406,467.281 55.1602,441.5 3.98828,382.52 4.51953,385.16 44.8398,583.93 212.227,628.168 c 0.039,0.07 0.136,0.059 0.187,0.094 6.547,1.738 13.246,3.207 20.149,4.433 10.167,1.328 20.796,1.231 31.5,-0.371 52.597,-7.875 88.113,-49.672 79.378,-93.383"
         style="fill:#4561b6;fill-opacity:1;fill-rule:nonzero;stroke:none"
         id="path14" /><path
         d="m 972.664,419.449 v 60.508 H 1301.88 V 419.449 H 972.664"
         style="fill:#4561b6;fill-opacity:1;fill-rule:nonzero;stroke:none"
         id="path16" /><path
         d="m 972.664,309.941 v 60.504 H 1301.88 V 309.941 H 972.664"
         style="fill:#4561b6;fill-opacity:1;fill-rule:nonzero;stroke:none"
         id="path18" /><path
         d="m 972.664,200.957 v 60.508 H 1301.88 V 200.957 H 972.664"
         style="fill:#4561b6;fill-opacity:1;fill-rule:nonzero;stroke:none"
         id="path20" /><path
         d="M 1356.76,448.699 1534.58,342.914 1356.76,237.129 Z"
         style="fill:#4561b6;fill-opacity:1;fill-rule:nonzero;stroke:none"
         id="path22" /><g
         id="g24"
         transform="scale(10)"><text
           transform="matrix(1,0,0,-0.37703694,130.998,19.4992)"
           style="font-variant:normal;font-weight:bold;font-size:104.731px;font-family:CenturyGothic;-inkscape-font-specification:CenturyGothic-Bold;writing-mode:lr-tb;fill:#4561b6;fill-opacity:1;fill-rule:nonzero;stroke:none"
           id="text28"><tspan
             x="0"
             y="0"
             id="tspan26">X</tspan></text><text
           transform="matrix(1,0,0,-0.38125884,200.23,19.6348)"
           style="font-variant:normal;font-weight:bold;font-size:104.731px;font-family:CenturyGothic;-inkscape-font-specification:CenturyGothic-Bold;writing-mode:lr-tb;fill:#4561b6;fill-opacity:1;fill-rule:nonzero;stroke:none"
           id="text32"><tspan
             x="0"
             y="0"
             id="tspan30">T</tspan></text><text
           transform="matrix(1,0,0,-0.37703694,20.9844,19.4992)"
           style="font-variant:normal;font-weight:bold;font-size:104.731px;font-family:CenturyGothic;-inkscape-font-specification:CenturyGothic-Bold;writing-mode:lr-tb;fill:#4561b6;fill-opacity:1;fill-rule:nonzero;stroke:none"
           id="text36"><tspan
             x="0"
             y="0"
             id="tspan34">N</tspan></text></g><g
         id="g38"
         transform="scale(10)"><text
           transform="matrix(1,0,0,-1,29.8672,5.2125)"
           style="font-variant:normal;font-size:17px;font-family:FranklinGothic;-inkscape-font-specification:FranklinGothic-Demi;writing-mode:lr-tb;fill:#7a7b7c;fill-opacity:1;fill-rule:nonzero;stroke:none"
           id="text42"><tspan
             x="0 23.945808 48.887207 72.384811 95.284714 123.7124 148.12299 173.37151 197.13521"
             y="0"
             sodipodi:role="line"
             id="tspan40">SOFTWARES</tspan></text></g></g></g></svg>
